<svg id="like" xmlns="http://www.w3.org/2000/svg" width="40" height="38.333" viewBox="0 0 40 38.333">
  <g id="Group_17" data-name="Group 17" transform="translate(0 16.317)">
    <g id="Group_16" data-name="Group 16">
      <path id="Path_7" data-name="Path 7" d="M4.234,224A4.24,4.24,0,0,0,0,228.234v13.548a4.24,4.24,0,0,0,4.234,4.234H9.314a4.2,4.2,0,0,0,2.54-.857V224Z" transform="translate(0 -224)" fill="#fff"/>
    </g>
  </g>
  <g id="Group_19" data-name="Group 19" transform="translate(12.904)">
    <g id="Group_18" data-name="Group 18">
      <path id="Path_8" data-name="Path 8" d="M197.763,33.567a3.662,3.662,0,0,0-1.1-2.621,4.092,4.092,0,0,0,1.084-3.179,4.354,4.354,0,0,0-4.417-3.776H182.867a23.6,23.6,0,0,0,1.348-6.662c0-3.612-3.121-6.662-5.081-6.662a5.38,5.38,0,0,0-3.07,1.014.832.832,0,0,0-.317.651V17.98L170.87,28.371l-.2.1v17.85a11.251,11.251,0,0,0,4.234.984h15.545a3.884,3.884,0,0,0,3.837-2.91,3.69,3.69,0,0,0-.306-2.5,3.725,3.725,0,0,0,2.093-3.333,3.646,3.646,0,0,0-.4-1.665A3.722,3.722,0,0,0,197.763,33.567Z" transform="translate(-170.667 -10.667)" fill="#fff"/>
    </g>
  </g>
</svg>
