<svg id="like" xmlns="http://www.w3.org/2000/svg" width="40" height="38.333" viewBox="0 0 40 38.333">
  <g id="Group_17" data-name="Group 17" transform="translate(0 0)">
    <g id="Group_16" data-name="Group 16">
      <path id="Path_7" data-name="Path 7" d="M4.218,245.936A4.224,4.224,0,0,1,0,241.717v-13.5A4.224,4.224,0,0,1,4.218,224H9.28a4.188,4.188,0,0,1,2.531.854v21.082Z" transform="translate(0 -224)" fill="#fff"/>
    </g>
  </g>
  <g id="Group_19" data-name="Group 19" transform="translate(13.002 1.687)">
    <g id="Group_18" data-name="Group 18">
      <path id="Path_8" data-name="Path 8" d="M197.665,24.409a3.67,3.67,0,0,1-1.1,2.622,4.1,4.1,0,0,1,1.08,3.18,4.343,4.343,0,0,1-4.4,3.776H182.823a23.682,23.682,0,0,1,1.343,6.663c0,3.613-3.11,6.663-5.062,6.663a5.348,5.348,0,0,1-3.059-1.014.833.833,0,0,1-.315-.651V40l-4.86-10.392-.2-.1V11.651a11.174,11.174,0,0,1,4.218-.984h15.488a3.872,3.872,0,0,1,3.824,2.91,3.7,3.7,0,0,1-.305,2.5,3.726,3.726,0,0,1,2.086,3.333,3.658,3.658,0,0,1-.4,1.666A3.724,3.724,0,0,1,197.665,24.409Z" transform="translate(-170.667 -10.667)" fill="#fff"/>
    </g>
  </g>
</svg>
